# xmcd
#
# Track frame offsets: 
#        183
#        26283
#        42845
#        61735
#        81033
#        91973
#        104973
#        128595
#        146338
#        160715
#        179965
#        200553
#        220068
#        234750
#
# Disc length: 3530 seconds
#
# Revision: 1
# Processed by: cddbd v1.5.2PL0 Copyright (c) Steve Scherf et al.
# Submitted via: ExactAudioCopy v0.99pb1
#
DISCID=b70dc80e
DTITLE=Various Artist - Latin Jazz Party - CD2
DYEAR=1992
DGENRE=Jazz
TTITLE0=Ellis. Herb - One Note Samba
TTITLE1=Getz, Stan and Luis Bonfa - So Danco Samba (Jazz Samba)
TTITLE2=Tjader, Cal - How High The Moon
TTITLE3=Brookmeyer, Bob - Chara Tua Tristeza
TTITLE4=Bonfa, Luis - Quebra Mar (The Sea Wall)
TTITLE5=Carter, Benny with The Oscar Peterson Trio - Poinciana
TTITLE6=Gez, Stan and Laurindo Almeida - Corcovado
TTITLE7=Benson, George - Carnival Joys
TTITLE8=Thielemans, Toots and Elis Regina - Wave
TTITLE9=Brookmeyer, Bob - Blues Bossa Nova
TTITLE10=Getz, Stan with Gary McFarland Orchestra - Bim Bom
TTITLE11=Gillespie, Dizzy and His Orchestra - Tin Tin Deo
TTITLE12=Parker Quintet, Charlie - Begin The Beguine
TTITLE13=Getz, Stan and Laurindo Almeida - Once Again
EXTD=
EXTT0=
EXTT1=
EXTT2=
EXTT3=
EXTT4=
EXTT5=
EXTT6=
EXTT7=
EXTT8=
EXTT9=
EXTT10=
EXTT11=
EXTT12=
EXTT13=
PLAYORDER=
